<?xml version="1.0" encoding="UTF-8" standalone="no"?>
<!-- Generator: Adobe Illustrator 16.0.4, SVG Export Plug-In . SVG Version: 6.00 Build 0)  -->

<svg
   xmlns:dc="http://purl.org/dc/elements/1.1/"
   xmlns:cc="http://creativecommons.org/ns#"
   xmlns:rdf="http://www.w3.org/1999/02/22-rdf-syntax-ns#"
   xmlns:svg="http://www.w3.org/2000/svg"
   xmlns="http://www.w3.org/2000/svg"
   xmlns:sodipodi="http://sodipodi.sourceforge.net/DTD/sodipodi-0.dtd"
   xmlns:inkscape="http://www.inkscape.org/namespaces/inkscape"
   version="1.1"
   id="Capa_1"
   x="0px"
   y="0px"
   width="544.38599"
   height="250.019"
   viewBox="0 0 544.38596 250.019"
   enable-background="new 0 0 595.28 404.017"
   xml:space="preserve"
   sodipodi:docname="logo-BASE-COLOR.svg"
   inkscape:version="0.92.3 (2405546, 2018-03-11)"><metadata
   id="metadata45"><rdf:RDF><cc:Work
       rdf:about=""><dc:format>image/svg+xml</dc:format><dc:type
         rdf:resource="http://purl.org/dc/dcmitype/StillImage" /><dc:title></dc:title></cc:Work></rdf:RDF></metadata><defs
   id="defs43" /><sodipodi:namedview
   pagecolor="#ffffff"
   bordercolor="#666666"
   borderopacity="1"
   objecttolerance="10"
   gridtolerance="10"
   guidetolerance="10"
   inkscape:pageopacity="0"
   inkscape:pageshadow="2"
   inkscape:window-width="1873"
   inkscape:window-height="1043"
   id="namedview41"
   showgrid="false"
   inkscape:zoom="1.1682677"
   inkscape:cx="74.80686"
   inkscape:cy="-15.793518"
   inkscape:window-x="47"
   inkscape:window-y="0"
   inkscape:window-maximized="1"
   inkscape:current-layer="g3769" />


















<g
   id="g3769"
   transform="translate(-23.034,-38.13)"><g
     id="g3828"
     transform="matrix(0.91846594,0,0,0.91846594,24.071049,13.301424)"><path
       d="m 104.734,137.627 c 1.55,25.807 -12.703,36.337 -26.499,36.337 -10.04,0 -15.154,-5.501 -17.615,-9.4 -4.905,-7.312 -5.115,-17.337 -5.115,-24.203 0,-9.126 0.887,-17.112 4.203,-22.616 3.136,-4.784 9.382,-9.57 18.736,-9.57 11.131,0.001 24.941,7.297 26.29,29.452 m 15.539,49.771 c 9.802,-11.184 14.763,-27.332 14.763,-44.674 0,-37.898 -22.73,-60.961 -51.235,-60.961 -15.606,0 -24.297,7.074 -28.296,10.498 V 38.13 L 26.54,50.26 v 137.026 z"
       id="path8"
       inkscape:connector-curvature="0"
       style="clip-rule:evenodd;fill:#c6d41f;fill-rule:evenodd" /><path
       d="m 520.709,102.54 c 0,-12.232 9.665,-22.146 21.606,-22.146 11.952,0 21.6,9.914 21.6,22.146 0,12.234 -9.647,22.165 -21.6,22.165 -11.941,-0.001 -21.606,-9.932 -21.606,-22.165"
       id="path2"
       inkscape:connector-curvature="0"
       style="clip-rule:evenodd;fill:#009fa0;fill-rule:evenodd" /><path
       d="m 520.709,167.152 c 0,-12.234 9.665,-22.141 21.606,-22.141 11.952,0 21.6,9.907 21.6,22.141 0,12.213 -9.647,22.134 -21.6,22.134 -11.941,0 -21.606,-9.921 -21.606,-22.134"
       id="path4"
       inkscape:connector-curvature="0"
       style="clip-rule:evenodd;fill:#009fa0;fill-rule:evenodd" /><path
       d="m 350.717,187.243 c 6.306,-6.834 9.578,-15.411 9.578,-24.629 0,-27.639 -26.964,-32.413 -41.014,-34.714 -14.042,-2.064 -25.846,-3.662 -25.846,-11.88 0,-4.33 4.687,-11.197 17.149,-11.197 14.044,0 22.278,8.688 26.954,14.17 l 18.951,-17.368 c -3.355,-3.877 -6.7,-7.753 -13.592,-11.628 -10.035,-5.964 -21.393,-8.236 -31.655,-8.236 -26.279,0 -46.769,15.768 -46.769,38.827 0,25.119 22.72,30.146 36.761,33.348 12.674,2.493 18.938,3.881 20.97,4.569 1.973,0.703 8.421,2.521 8.421,8.214 0,5.265 -7.784,11.188 -20.274,11.188 -7.346,0 -15.598,-2.056 -22.052,-6.83 -4.895,-3.423 -7.356,-7.097 -9.111,-9.833 l -21.613,18.508 c 1.606,2.418 3.342,4.924 6.1,7.515 z"
       id="path6"
       inkscape:connector-curvature="0"
       style="clip-rule:evenodd;fill:#c6d41f;fill-rule:evenodd" /><path
       d="m 216.806,143.345 c 0,15.308 0,19.859 -6.458,25.816 -4.931,4.339 -11.827,6.846 -18.725,6.846 -11.804,0 -16.489,-6.168 -16.489,-12.349 0,-11.174 11.819,-13.456 22.046,-15.313 12.489,-2.487 15.614,-3.412 19.626,-5 m 29.516,44.053 c -0.936,-5.209 -1.091,-10 -1.232,-16.545 v -51.625 c 0,-14.185 -1.763,-21.698 -12.244,-29.228 -9.791,-7.083 -26.974,-8.237 -34.743,-8.237 -10.044,0 -24.073,1.595 -33.439,8.237 -13.35,9.347 -14.487,23.032 -14.924,30.131 h 26.512 c 0.881,-6.619 2.014,-15.305 20.928,-15.305 19.626,0 19.626,10.518 19.626,17.133 -6.025,2.741 -9.371,3.663 -23.175,5.941 -22.499,3.661 -37.21,6.167 -44.791,22.38 -2.217,5.026 -3.108,10.748 -3.108,16.441 0,8.31 2.041,15.257 5.604,20.676 h 94.986 z"
       id="path10"
       inkscape:connector-curvature="0"
       style="clip-rule:evenodd;fill:#c6d41f;fill-rule:evenodd" /><path
       d="m 399.029,126.755 c 0.896,-3.891 2.219,-10.296 9.124,-15.992 4.474,-3.641 9.803,-5.246 15.37,-5.246 6.905,0 12.712,2.718 16.266,6.386 4.017,4.118 5.804,8.901 6.269,14.851 h -47.029 z m 69.789,60.531 c 4.428,-4.082 6.993,-7.887 9.299,-10.948 l -23.844,-14.165 c -3.786,4.789 -10.688,13.476 -25.399,13.476 -13.363,0 -22.726,-7.079 -26.735,-15.32 -2.444,-4.562 -2.883,-9.362 -3.109,-12.558 h 80.653 c -0.427,-12.556 -1.771,-30.83 -14.468,-46.845 C 451.838,84.507 436.018,81.76 424.21,81.76 c -32.093,0 -55.722,23.529 -55.722,59.394 0,19.026 6.971,35.183 18.616,46.114 z"
       id="path12"
       inkscape:connector-curvature="0"
       style="clip-rule:evenodd;fill:#c6d41f;fill-rule:evenodd" /><polygon
       points="23.034,232.207 23.034,224.625 63.25,224.625 63.25,232.207 47.453,232.207 47.453,274.745 38.762,274.745 38.762,232.207 "
       id="polygon14" /><path
       d="m 79.101,275.726 c -2.875,0 -5.439,-0.481 -7.688,-1.432 -2.252,-0.96 -4.148,-2.288 -5.709,-3.971 -1.55,-1.686 -2.732,-3.7 -3.548,-6.035 -0.809,-2.341 -1.211,-4.912 -1.211,-7.725 0,-2.763 0.402,-5.311 1.211,-7.652 0.816,-2.335 1.998,-4.348 3.548,-6.036 1.562,-1.681 3.457,-3.002 5.709,-3.96 2.25,-0.957 4.813,-1.446 7.688,-1.446 2.878,0 5.442,0.489 7.692,1.446 2.25,0.958 4.147,2.279 5.7,3.96 1.559,1.688 2.738,3.701 3.555,6.036 0.812,2.341 1.211,4.889 1.211,7.652 0,2.812 -0.399,5.383 -1.211,7.725 -0.817,2.335 -1.996,4.35 -3.555,6.035 -1.553,1.683 -3.45,3.011 -5.7,3.971 -2.25,0.951 -4.814,1.432 -7.692,1.432 m 0,-6.318 c 1.762,0 3.296,-0.368 4.592,-1.115 1.299,-0.75 2.369,-1.737 3.205,-2.953 0.834,-1.216 1.446,-2.584 1.837,-4.103 0.399,-1.528 0.594,-3.079 0.594,-4.673 0,-1.545 -0.195,-3.088 -0.594,-4.63 -0.391,-1.546 -1.003,-2.915 -1.837,-4.107 -0.836,-1.2 -1.906,-2.167 -3.205,-2.916 -1.296,-0.743 -2.83,-1.123 -4.592,-1.123 -1.76,0 -3.292,0.38 -4.591,1.123 -1.297,0.749 -2.366,1.715 -3.204,2.916 -0.833,1.192 -1.447,2.561 -1.845,4.107 -0.392,1.542 -0.586,3.085 -0.586,4.63 0,1.595 0.194,3.146 0.586,4.673 0.398,1.519 1.013,2.887 1.845,4.103 0.837,1.216 1.906,2.203 3.204,2.953 1.299,0.747 2.831,1.115 4.591,1.115"
       id="path16"
       inkscape:connector-curvature="0" /><path
       d="m 104.482,238.458 h 7.51 v 4.909 h 0.146 c 1.108,-2.108 2.67,-3.614 4.664,-4.529 1.991,-0.909 4.151,-1.368 6.472,-1.368 2.826,0 5.295,0.506 7.408,1.514 2.107,1.006 3.861,2.383 5.251,4.136 1.397,1.757 2.441,3.803 3.132,6.14 0.698,2.346 1.044,4.851 1.044,7.516 0,2.435 -0.315,4.794 -0.939,7.092 -0.629,2.291 -1.581,4.318 -2.853,6.067 -1.281,1.756 -2.888,3.16 -4.832,4.211 -1.95,1.054 -4.245,1.581 -6.894,1.581 -1.158,0 -2.317,-0.105 -3.477,-0.315 -1.162,-0.211 -2.273,-0.545 -3.34,-1.014 -1.07,-0.465 -2.056,-1.067 -2.955,-1.788 -0.906,-0.725 -1.664,-1.579 -2.262,-2.566 h -0.145 v 18.105 h -7.931 v -49.691 z m 27.693,18.182 c 0,-1.644 -0.208,-3.235 -0.626,-4.779 -0.416,-1.549 -1.044,-2.916 -1.876,-4.104 -0.837,-1.193 -1.88,-2.151 -3.13,-2.879 -1.255,-0.722 -2.688,-1.089 -4.312,-1.089 -3.341,0 -5.857,1.175 -7.555,3.516 -1.688,2.342 -2.536,5.443 -2.536,9.336 0,1.82 0.222,3.517 0.658,5.086 0.445,1.565 1.102,2.916 1.984,4.039 0.88,1.118 1.937,2.012 3.171,2.664 1.224,0.65 2.652,0.979 4.277,0.979 1.809,0 3.338,-0.367 4.592,-1.114 1.252,-0.75 2.284,-1.726 3.098,-2.919 0.806,-1.189 1.391,-2.553 1.736,-4.072 0.349,-1.523 0.519,-3.08 0.519,-4.664"
       id="path18"
       inkscape:connector-curvature="0" /><path
       d="m 172.951,258.037 c 0,1.925 0.322,3.562 0.974,4.919 0.649,1.355 1.554,2.465 2.716,3.336 1.155,0.859 2.491,1.49 3.998,1.893 1.511,0.398 3.146,0.593 4.905,0.593 1.907,0 3.53,-0.223 4.872,-0.661 1.345,-0.445 2.43,-1.021 3.269,-1.722 0.837,-0.705 1.442,-1.512 1.812,-2.421 0.374,-0.912 0.556,-1.842 0.556,-2.777 0,-1.918 -0.432,-3.329 -1.286,-4.242 -0.859,-0.916 -1.799,-1.562 -2.819,-1.936 -1.766,-0.654 -3.816,-1.27 -6.155,-1.858 -2.347,-0.581 -5.23,-1.348 -8.664,-2.279 -2.137,-0.571 -3.912,-1.302 -5.329,-2.213 -1.414,-0.915 -2.534,-1.933 -3.37,-3.053 -0.835,-1.126 -1.43,-2.315 -1.774,-3.577 -0.345,-1.265 -0.522,-2.555 -0.522,-3.863 0,-2.528 0.522,-4.713 1.564,-6.563 1.044,-1.846 2.426,-3.38 4.147,-4.596 1.709,-1.218 3.655,-2.119 5.841,-2.705 2.178,-0.589 4.384,-0.878 6.607,-0.878 2.597,0 5.049,0.336 7.345,1.02 2.295,0.679 4.311,1.696 6.054,3.055 1.733,1.354 3.116,3.024 4.133,5.012 1.024,1.989 1.531,4.295 1.531,6.917 h -8.689 c -0.238,-3.231 -1.328,-5.506 -3.28,-6.843 -1.94,-1.335 -4.424,-2.003 -7.441,-2.003 -1.021,0 -2.064,0.108 -3.128,0.318 -1.07,0.211 -2.043,0.562 -2.922,1.053 -0.879,0.493 -1.612,1.159 -2.194,2 -0.581,0.84 -0.874,1.895 -0.874,3.158 0,1.784 0.55,3.17 1.639,4.179 1.086,1.008 2.517,1.764 4.28,2.278 0.183,0.049 0.914,0.248 2.192,0.597 1.277,0.35 2.696,0.736 4.277,1.16 1.579,0.417 3.119,0.832 4.632,1.229 1.509,0.394 2.582,0.69 3.237,0.877 1.622,0.519 3.037,1.217 4.237,2.103 1.208,0.892 2.216,1.909 3.025,3.053 0.819,1.154 1.419,2.376 1.815,3.694 0.392,1.3 0.589,2.621 0.589,3.93 0,2.808 -0.571,5.201 -1.705,7.191 -1.137,1.989 -2.628,3.619 -4.488,4.88 -1.853,1.265 -3.966,2.188 -6.335,2.77 -2.358,0.587 -4.771,0.877 -7.235,0.877 -2.831,0 -5.496,-0.352 -8.001,-1.055 -2.505,-0.694 -4.68,-1.773 -6.542,-3.224 -1.853,-1.453 -3.338,-3.314 -4.447,-5.581 -1.117,-2.27 -1.697,-4.946 -1.741,-8.042 z"
       id="path20"
       inkscape:connector-curvature="0" /><path
       d="m 212.169,238.458 h 7.511 v 4.909 h 0.141 c 1.114,-2.108 2.666,-3.614 4.661,-4.529 2,-0.909 4.151,-1.368 6.471,-1.368 2.833,0 5.298,0.506 7.409,1.514 2.11,1.006 3.862,2.383 5.257,4.136 1.391,1.757 2.432,3.803 3.131,6.14 0.693,2.346 1.047,4.851 1.047,7.516 0,2.435 -0.315,4.794 -0.94,7.092 -0.629,2.291 -1.578,4.318 -2.857,6.067 -1.279,1.756 -2.886,3.16 -4.833,4.211 -1.951,1.054 -4.249,1.581 -6.885,1.581 -1.166,0 -2.323,-0.105 -3.485,-0.315 -1.157,-0.211 -2.27,-0.545 -3.344,-1.014 -1.063,-0.465 -2.053,-1.067 -2.952,-1.788 -0.906,-0.725 -1.66,-1.579 -2.265,-2.566 h -0.138 v 18.105 h -7.929 z m 27.696,18.182 c 0,-1.644 -0.21,-3.235 -0.625,-4.779 -0.418,-1.549 -1.045,-2.916 -1.887,-4.104 -0.835,-1.193 -1.876,-2.151 -3.129,-2.879 -1.256,-0.722 -2.688,-1.089 -4.312,-1.089 -3.34,0 -5.857,1.175 -7.553,3.516 -1.691,2.342 -2.537,5.443 -2.537,9.336 0,1.82 0.222,3.517 0.656,5.086 0.443,1.565 1.104,2.916 1.985,4.039 0.885,1.118 1.937,2.012 3.168,2.664 1.229,0.65 2.66,0.979 4.281,0.979 1.804,0 3.339,-0.367 4.591,-1.114 1.252,-0.75 2.28,-1.726 3.097,-2.919 0.81,-1.189 1.388,-2.553 1.743,-4.072 0.346,-1.523 0.522,-3.08 0.522,-4.664"
       id="path22"
       inkscape:connector-curvature="0" /><path
       d="m 271.406,275.726 c -2.873,0 -5.438,-0.481 -7.69,-1.432 -2.25,-0.96 -4.147,-2.288 -5.7,-3.971 -1.56,-1.686 -2.736,-3.7 -3.549,-6.035 -0.812,-2.341 -1.219,-4.912 -1.219,-7.725 0,-2.763 0.407,-5.311 1.219,-7.652 0.812,-2.335 1.989,-4.348 3.549,-6.036 1.552,-1.681 3.45,-3.002 5.7,-3.96 2.252,-0.957 4.817,-1.446 7.69,-1.446 2.88,0 5.44,0.489 7.692,1.446 2.25,0.958 4.146,2.279 5.707,3.96 1.556,1.688 2.73,3.701 3.547,6.036 0.81,2.341 1.213,4.889 1.213,7.652 0,2.812 -0.403,5.383 -1.213,7.725 -0.817,2.335 -1.992,4.35 -3.547,6.035 -1.562,1.683 -3.458,3.011 -5.707,3.971 -2.252,0.951 -4.811,1.432 -7.692,1.432 m 0,-6.318 c 1.763,0 3.295,-0.368 4.592,-1.115 1.298,-0.75 2.368,-1.737 3.203,-2.953 0.833,-1.216 1.448,-2.584 1.847,-4.103 0.389,-1.528 0.586,-3.079 0.586,-4.673 0,-1.545 -0.197,-3.088 -0.586,-4.63 -0.399,-1.546 -1.013,-2.915 -1.847,-4.107 -0.834,-1.2 -1.905,-2.167 -3.203,-2.916 -1.297,-0.743 -2.829,-1.123 -4.592,-1.123 -1.763,0 -3.292,0.38 -4.591,1.123 -1.296,0.749 -2.368,1.715 -3.203,2.916 -0.833,1.192 -1.449,2.561 -1.839,4.107 -0.396,1.542 -0.593,3.085 -0.593,4.63 0,1.595 0.197,3.146 0.593,4.673 0.39,1.519 1.006,2.887 1.839,4.103 0.834,1.216 1.906,2.203 3.203,2.953 1.299,0.747 2.828,1.115 4.591,1.115"
       id="path24"
       inkscape:connector-curvature="0" /><path
       d="m 296.688,238.458 h 7.439 v 7.012 h 0.143 c 0.233,-0.977 0.684,-1.937 1.353,-2.877 0.678,-0.928 1.49,-1.789 2.443,-2.558 0.948,-0.773 2.001,-1.396 3.164,-1.859 1.159,-0.472 2.339,-0.706 3.548,-0.706 0.922,0 1.564,0.023 1.909,0.072 0.353,0.045 0.711,0.102 1.083,0.139 v 7.725 c -0.559,-0.094 -1.129,-0.179 -1.709,-0.249 -0.575,-0.068 -1.148,-0.103 -1.701,-0.103 -1.345,0 -2.608,0.272 -3.791,0.807 -1.188,0.536 -2.218,1.333 -3.097,2.39 -0.883,1.052 -1.582,2.346 -2.09,3.892 -0.51,1.546 -0.76,3.321 -0.76,5.333 v 17.269 h -7.934 z"
       id="path26"
       inkscape:connector-curvature="0" /><path
       d="m 320.511,238.458 h 5.983 v -10.884 h 7.935 v 10.884 h 7.163 v 5.961 h -7.163 v 19.377 c 0,0.839 0.033,1.562 0.105,2.18 0.062,0.606 0.229,1.118 0.48,1.536 0.257,0.424 0.642,0.738 1.146,0.95 0.512,0.213 1.209,0.315 2.088,0.315 0.562,0 1.117,-0.015 1.67,-0.03 0.562,-0.022 1.118,-0.109 1.673,-0.244 v 6.171 c -0.882,0.093 -1.737,0.191 -2.569,0.281 -0.836,0.094 -1.7,0.139 -2.578,0.139 -2.091,0 -3.771,-0.196 -5.043,-0.59 -1.278,-0.402 -2.277,-0.991 -2.99,-1.758 -0.727,-0.771 -1.209,-1.744 -1.463,-2.915 -0.256,-1.171 -0.41,-2.502 -0.454,-4 V 244.42 h -5.983 z"
       id="path28"
       inkscape:connector-curvature="0" /><path
       d="m 373.458,258.037 c 0,1.925 0.326,3.562 0.98,4.919 0.645,1.355 1.551,2.465 2.714,3.336 1.152,0.859 2.488,1.49 3.996,1.893 1.508,0.398 3.145,0.593 4.903,0.593 1.906,0 3.532,-0.223 4.875,-0.661 1.344,-0.445 2.432,-1.021 3.271,-1.722 0.831,-0.705 1.438,-1.512 1.81,-2.421 0.372,-0.912 0.553,-1.842 0.553,-2.777 0,-1.918 -0.432,-3.329 -1.284,-4.242 -0.86,-0.916 -1.8,-1.562 -2.824,-1.936 -1.759,-0.654 -3.809,-1.27 -6.154,-1.858 -2.346,-0.581 -5.232,-1.348 -8.665,-2.279 -2.13,-0.571 -3.907,-1.302 -5.322,-2.213 -1.415,-0.915 -2.537,-1.933 -3.375,-3.053 -0.833,-1.126 -1.426,-2.315 -1.774,-3.577 -0.343,-1.265 -0.521,-2.555 -0.521,-3.863 0,-2.528 0.521,-4.713 1.565,-6.563 1.046,-1.846 2.421,-3.38 4.143,-4.596 1.719,-1.218 3.663,-2.119 5.845,-2.705 2.183,-0.589 4.386,-0.878 6.608,-0.878 2.598,0 5.04,0.336 7.338,1.02 2.301,0.679 4.316,1.696 6.062,3.055 1.732,1.354 3.117,3.024 4.133,5.012 1.026,1.989 1.533,4.295 1.533,6.917 h -8.695 c -0.233,-3.231 -1.321,-5.506 -3.271,-6.843 -1.95,-1.335 -4.43,-2.003 -7.443,-2.003 -1.024,0 -2.065,0.108 -3.13,0.318 -1.07,0.211 -2.043,0.562 -2.926,1.053 -0.885,0.493 -1.616,1.159 -2.189,2 -0.58,0.84 -0.875,1.895 -0.875,3.158 0,1.784 0.548,3.17 1.64,4.179 1.088,1.008 2.516,1.764 4.278,2.278 0.185,0.049 0.915,0.248 2.189,0.597 1.281,0.35 2.7,0.736 4.281,1.16 1.576,0.417 3.118,0.832 4.623,1.229 1.517,0.394 2.59,0.69 3.244,0.877 1.624,0.519 3.031,1.217 4.238,2.103 1.207,0.892 2.217,1.909 3.024,3.053 0.818,1.154 1.419,2.376 1.816,3.694 0.389,1.3 0.588,2.621 0.588,3.93 0,2.808 -0.569,5.201 -1.707,7.191 -1.132,1.989 -2.634,3.619 -4.485,4.88 -1.851,1.265 -3.97,2.188 -6.331,2.77 -2.372,0.587 -4.777,0.877 -7.236,0.877 -2.831,0 -5.498,-0.352 -8.002,-1.055 -2.504,-0.694 -4.685,-1.773 -6.543,-3.224 -1.853,-1.453 -3.339,-3.314 -4.448,-5.581 -1.113,-2.27 -1.696,-4.946 -1.739,-8.042 z"
       id="path30"
       inkscape:connector-curvature="0" /><path
       d="m 412.575,224.625 h 7.931 v 18.605 h 0.142 c 0.968,-1.641 2.423,-3.008 4.343,-4.108 1.927,-1.099 4.074,-1.652 6.441,-1.652 3.941,0 7.044,1.034 9.322,3.093 2.269,2.059 3.412,5.143 3.412,9.265 v 24.917 h -7.934 v -22.811 c -0.099,-2.856 -0.699,-4.92 -1.811,-6.213 -1.111,-1.29 -2.851,-1.932 -5.221,-1.932 -1.343,0 -2.551,0.249 -3.612,0.736 -1.072,0.495 -1.976,1.171 -2.719,2.039 -0.736,0.869 -1.32,1.883 -1.737,3.055 -0.421,1.172 -0.627,2.405 -0.627,3.715 v 21.412 h -7.931 v -50.121 z"
       id="path32"
       inkscape:connector-curvature="0" /><path
       d="m 469.367,275.726 c -2.877,0 -5.441,-0.481 -7.685,-1.432 -2.251,-0.96 -4.154,-2.288 -5.705,-3.971 -1.562,-1.686 -2.741,-3.7 -3.55,-6.035 -0.818,-2.341 -1.221,-4.912 -1.221,-7.725 0,-2.763 0.402,-5.311 1.221,-7.652 0.809,-2.335 1.988,-4.348 3.55,-6.036 1.551,-1.681 3.454,-3.002 5.705,-3.96 2.243,-0.957 4.808,-1.446 7.685,-1.446 2.878,0 5.44,0.489 7.689,1.446 2.254,0.958 4.159,2.279 5.708,3.96 1.551,1.688 2.737,3.701 3.551,6.036 0.807,2.341 1.217,4.889 1.217,7.652 0,2.812 -0.41,5.383 -1.217,7.725 -0.813,2.335 -2,4.35 -3.551,6.035 -1.549,1.683 -3.454,3.011 -5.708,3.971 -2.248,0.951 -4.811,1.432 -7.689,1.432 m 0,-6.318 c 1.768,0 3.29,-0.368 4.59,-1.115 1.305,-0.75 2.366,-1.737 3.203,-2.953 0.834,-1.216 1.45,-2.584 1.851,-4.103 0.391,-1.528 0.586,-3.079 0.586,-4.673 0,-1.545 -0.195,-3.088 -0.586,-4.63 -0.4,-1.546 -1.017,-2.915 -1.851,-4.107 -0.837,-1.2 -1.898,-2.167 -3.203,-2.916 -1.3,-0.743 -2.822,-1.123 -4.59,-1.123 -1.763,0 -3.293,0.38 -4.592,1.123 -1.298,0.749 -2.36,1.715 -3.198,2.916 -0.836,1.192 -1.456,2.561 -1.844,4.107 -0.4,1.542 -0.595,3.085 -0.595,4.63 0,1.595 0.194,3.146 0.595,4.673 0.388,1.519 1.008,2.887 1.844,4.103 0.838,1.216 1.9,2.203 3.198,2.953 1.299,0.747 2.829,1.115 4.592,1.115"
       id="path34"
       inkscape:connector-curvature="0" /><path
       d="m 494.749,238.458 h 7.515 v 4.909 h 0.138 c 1.118,-2.108 2.669,-3.614 4.667,-4.529 1.995,-0.909 4.149,-1.368 6.465,-1.368 2.838,0 5.305,0.506 7.417,1.514 2.109,1.006 3.86,2.383 5.256,4.136 1.385,1.757 2.429,3.803 3.128,6.14 0.692,2.346 1.046,4.851 1.046,7.516 0,2.435 -0.312,4.794 -0.94,7.092 -0.628,2.291 -1.579,4.318 -2.854,6.067 -1.272,1.756 -2.884,3.16 -4.835,4.211 -1.951,1.054 -4.248,1.581 -6.887,1.581 -1.163,0 -2.324,-0.105 -3.479,-0.315 -1.162,-0.211 -2.276,-0.545 -3.341,-1.014 -1.067,-0.465 -2.051,-1.067 -2.956,-1.788 -0.907,-0.725 -1.661,-1.579 -2.266,-2.566 h -0.139 v 18.105 h -7.935 z m 27.699,18.182 c 0,-1.644 -0.207,-3.235 -0.63,-4.779 -0.416,-1.549 -1.043,-2.916 -1.878,-4.104 -0.832,-1.193 -1.871,-2.151 -3.127,-2.879 -1.248,-0.722 -2.693,-1.089 -4.319,-1.089 -3.339,0 -5.857,1.175 -7.548,3.516 -1.693,2.342 -2.545,5.443 -2.545,9.336 0,1.82 0.225,3.517 0.672,5.086 0.433,1.565 1.096,2.916 1.978,4.039 0.883,1.118 1.933,2.012 3.166,2.664 1.226,0.65 2.652,0.979 4.277,0.979 1.813,0 3.341,-0.367 4.587,-1.114 1.257,-0.75 2.286,-1.726 3.104,-2.919 0.808,-1.189 1.389,-2.553 1.742,-4.072 0.342,-1.523 0.521,-3.08 0.521,-4.664"
       id="path36"
       inkscape:connector-curvature="0" /><path
       d="m 543.344,263.095 c 0.239,2.337 1.118,3.981 2.649,4.913 1.527,0.934 3.363,1.4 5.487,1.4 0.746,0 1.597,-0.054 2.547,-0.169 0.946,-0.119 1.844,-0.342 2.676,-0.671 0.835,-0.331 1.518,-0.804 2.054,-1.438 0.538,-0.628 0.778,-1.465 0.732,-2.489 -0.045,-1.037 -0.416,-1.877 -1.115,-2.529 -0.694,-0.659 -1.586,-1.184 -2.68,-1.58 -1.085,-0.4 -2.329,-0.736 -3.72,-1.019 -1.391,-0.276 -2.803,-0.584 -4.244,-0.907 -1.481,-0.33 -2.912,-0.731 -4.281,-1.201 -1.367,-0.465 -2.598,-1.1 -3.684,-1.893 -1.086,-0.795 -1.964,-1.816 -2.607,-3.052 -0.657,-1.24 -0.974,-2.777 -0.974,-4.6 0,-1.967 0.468,-3.612 1.421,-4.952 0.955,-1.331 2.16,-2.406 3.621,-3.229 1.463,-0.816 3.086,-1.386 4.872,-1.715 1.784,-0.32 3.489,-0.494 5.111,-0.494 1.854,0 3.63,0.204 5.325,0.598 1.686,0.404 3.224,1.048 4.594,1.928 1.363,0.895 2.503,2.053 3.406,3.474 0.9,1.436 1.468,3.152 1.705,5.16 h -8.282 c -0.368,-1.917 -1.241,-3.198 -2.612,-3.854 -1.359,-0.658 -2.936,-0.987 -4.695,-0.987 -0.553,0 -1.209,0.052 -1.984,0.14 -0.76,0.097 -1.479,0.276 -2.147,0.532 -0.683,0.258 -1.247,0.629 -1.712,1.119 -0.467,0.49 -0.691,1.134 -0.691,1.932 0,0.982 0.33,1.776 1.006,2.382 0.675,0.612 1.552,1.12 2.649,1.515 1.087,0.394 2.327,0.735 3.71,1.019 1.4,0.276 2.836,0.586 4.323,0.906 1.435,0.331 2.85,0.733 4.241,1.197 1.395,0.469 2.632,1.102 3.72,1.899 1.092,0.795 1.967,1.795 2.653,3.02 0.672,1.21 1.002,2.707 1.002,4.486 0,2.15 -0.483,3.981 -1.46,5.473 -0.975,1.5 -2.24,2.718 -3.791,3.652 -1.554,0.936 -3.28,1.614 -5.187,2.034 -1.902,0.421 -3.783,0.632 -5.638,0.632 -2.269,0 -4.364,-0.256 -6.289,-0.771 -1.934,-0.515 -3.604,-1.295 -5.012,-2.347 -1.419,-1.053 -2.529,-2.372 -3.342,-3.933 -0.81,-1.569 -1.242,-3.433 -1.29,-5.581 z"
       id="path38"
       inkscape:connector-curvature="0" /></g></g>
</svg>